name rise44.8762peak52.3436fall86.788.mot
datacolumns 19
datarows 36
range 7.99163900000000 8.04996500000000
endheader
time	ground_force1_vx	ground_force1_vy	ground_force1_vz	ground_force1_px	ground_force1_py	ground_force1_pz	ground_force2_vx	ground_force2_vy	ground_force2_vz	ground_force2_px	ground_force2_py	ground_force2_pz	ground_torque1_x	ground_torque1_y	ground_torque1_z	ground_torque2_x	ground_torque2_y	ground_torque2_z	
7.99163900000000	48.38804800000000	743.38389600000005	66.09622700000000	0.25254600000000	0.00000000000000	0.10772900000000	0.00000000000000	0.00000000000000	0.00000000000000	0.00000000000000	0.00000000000000	0.00000000000000	0.00000000000000	22.37928600000000	0.00000000000000	0.00000000000000	0.00000000000000	0.00000000000000	
7.99330200000000	47.54537400000000	745.86397299999999	66.16149000000000	0.25137100000000	0.00000000000000	0.10772200000000	0.00000000000000	0.00000000000000	0.00000000000000	0.00000000000000	0.00000000000000	0.00000000000000	0.00000000000000	22.39959400000000	0.00000000000000	0.00000000000000	0.00000000000000	0.00000000000000	
7.99496700000000	46.71175000000000	748.25057800000002	66.21583400000000	0.25023400000000	0.00000000000000	0.10771300000000	0.00000000000000	0.00000000000000	0.00000000000000	0.00000000000000	0.00000000000000	0.00000000000000	0.00000000000000	22.41610300000000	0.00000000000000	0.00000000000000	0.00000000000000	0.00000000000000	
7.99663800000000	45.88799900000000	750.54240000000004	66.25977000000000	0.24913600000000	0.00000000000000	0.10770000000000	0.00000000000000	0.00000000000000	0.00000000000000	0.00000000000000	0.00000000000000	0.00000000000000	0.00000000000000	22.42900200000000	0.00000000000000	0.00000000000000	0.00000000000000	0.00000000000000	
7.99829700000000	45.07482700000000	752.73811400000000	66.29375200000000	0.24807500000000	0.00000000000000	0.10768400000000	0.00000000000000	0.00000000000000	0.00000000000000	0.00000000000000	0.00000000000000	0.00000000000000	0.00000000000000	22.43845100000000	0.00000000000000	0.00000000000000	0.00000000000000	0.00000000000000	
7.99996400000000	44.27282200000000	754.83639600000004	66.31818600000000	0.24705000000000	0.00000000000000	0.10766500000000	0.00000000000000	0.00000000000000	0.00000000000000	0.00000000000000	0.00000000000000	0.00000000000000	0.00000000000000	22.44458200000000	0.00000000000000	0.00000000000000	0.00000000000000	0.00000000000000	
8.00163700000000	43.48246300000000	756.83593800000006	66.33342500000001	0.24605800000000	0.00000000000000	0.10764400000000	0.00000000000000	0.00000000000000	0.00000000000000	0.00000000000000	0.00000000000000	0.00000000000000	0.00000000000000	22.44750400000000	0.00000000000000	0.00000000000000	0.00000000000000	0.00000000000000	
8.00330200000000	42.70412000000000	758.73545999999999	66.33977500000000	0.24509800000000	0.00000000000000	0.10762000000000	0.00000000000000	0.00000000000000	0.00000000000000	0.00000000000000	0.00000000000000	0.00000000000000	0.00000000000000	22.44729800000000	0.00000000000000	0.00000000000000	0.00000000000000	0.00000000000000	
8.00496800000000	41.93805500000000	760.53373199999999	66.33749200000000	0.24416700000000	0.00000000000000	0.10759400000000	0.00000000000000	0.00000000000000	0.00000000000000	0.00000000000000	0.00000000000000	0.00000000000000	0.00000000000000	22.44402500000000	0.00000000000000	0.00000000000000	0.00000000000000	0.00000000000000	
8.00663400000000	41.18443300000000	762.22958100000005	66.32679100000000	0.24326500000000	0.00000000000000	0.10756500000000	0.00000000000000	0.00000000000000	0.00000000000000	0.00000000000000	0.00000000000000	0.00000000000000	0.00000000000000	22.43772200000000	0.00000000000000	0.00000000000000	0.00000000000000	0.00000000000000	
8.00829900000000	40.44332100000000	763.82190700000001	66.30784100000000	0.24238900000000	0.00000000000000	0.10753500000000	0.00000000000000	0.00000000000000	0.00000000000000	0.00000000000000	0.00000000000000	0.00000000000000	0.00000000000000	22.42841000000000	0.00000000000000	0.00000000000000	0.00000000000000	0.00000000000000	
8.00996400000000	39.71469700000000	765.30969800000003	66.28077300000000	0.24153500000000	0.00000000000000	0.10750300000000	0.00000000000000	0.00000000000000	0.00000000000000	0.00000000000000	0.00000000000000	0.00000000000000	0.00000000000000	22.41608900000000	0.00000000000000	0.00000000000000	0.00000000000000	0.00000000000000	
8.01163200000000	38.99845400000000	766.69204000000002	66.24567999999999	0.24070300000000	0.00000000000000	0.10746900000000	0.00000000000000	0.00000000000000	0.00000000000000	0.00000000000000	0.00000000000000	0.00000000000000	0.00000000000000	22.40074400000000	0.00000000000000	0.00000000000000	0.00000000000000	0.00000000000000	
8.01329700000000	38.29440400000000	767.96813099999997	66.20262200000001	0.23988800000000	0.00000000000000	0.10743300000000	0.00000000000000	0.00000000000000	0.00000000000000	0.00000000000000	0.00000000000000	0.00000000000000	0.00000000000000	22.38234800000000	0.00000000000000	0.00000000000000	0.00000000000000	0.00000000000000	
8.01497200000000	37.60228800000000	769.13729100000000	66.15162800000000	0.23909000000000	0.00000000000000	0.10739700000000	0.00000000000000	0.00000000000000	0.00000000000000	0.00000000000000	0.00000000000000	0.00000000000000	0.00000000000000	22.36086000000000	0.00000000000000	0.00000000000000	0.00000000000000	0.00000000000000	
8.01663300000000	36.92178000000000	770.19897300000002	66.09270200000000	0.23830500000000	0.00000000000000	0.10735900000000	0.00000000000000	0.00000000000000	0.00000000000000	0.00000000000000	0.00000000000000	0.00000000000000	0.00000000000000	22.33622900000000	0.00000000000000	0.00000000000000	0.00000000000000	0.00000000000000	
8.01830200000000	36.25249400000000	771.15277200000003	66.02582200000001	0.23753000000000	0.00000000000000	0.10732000000000	0.00000000000000	0.00000000000000	0.00000000000000	0.00000000000000	0.00000000000000	0.00000000000000	0.00000000000000	22.30839700000000	0.00000000000000	0.00000000000000	0.00000000000000	0.00000000000000	
8.01997100000000	35.59399100000000	771.99843399999997	65.95094800000000	0.23676300000000	0.00000000000000	0.10728000000000	0.00000000000000	0.00000000000000	0.00000000000000	0.00000000000000	0.00000000000000	0.00000000000000	0.00000000000000	22.27729900000000	0.00000000000000	0.00000000000000	0.00000000000000	0.00000000000000	
8.02163500000000	34.94578500000000	772.73586299999999	65.86802299999999	0.23600100000000	0.00000000000000	0.10724000000000	0.00000000000000	0.00000000000000	0.00000000000000	0.00000000000000	0.00000000000000	0.00000000000000	0.00000000000000	22.24286700000000	0.00000000000000	0.00000000000000	0.00000000000000	0.00000000000000	
8.02330200000000	34.30735000000000	773.36512900000002	65.77697999999999	0.23524200000000	0.00000000000000	0.10719900000000	0.00000000000000	0.00000000000000	0.00000000000000	0.00000000000000	0.00000000000000	0.00000000000000	0.00000000000000	22.20503000000000	0.00000000000000	0.00000000000000	0.00000000000000	0.00000000000000	
8.02497000000000	33.67812800000000	773.88647400000002	65.67774100000000	0.23448300000000	0.00000000000000	0.10715800000000	0.00000000000000	0.00000000000000	0.00000000000000	0.00000000000000	0.00000000000000	0.00000000000000	0.00000000000000	22.16371700000000	0.00000000000000	0.00000000000000	0.00000000000000	0.00000000000000	
8.02663300000000	33.05753400000000	774.30031499999996	65.57022499999999	0.23372200000000	0.00000000000000	0.10711600000000	0.00000000000000	0.00000000000000	0.00000000000000	0.00000000000000	0.00000000000000	0.00000000000000	0.00000000000000	22.11885800000000	0.00000000000000	0.00000000000000	0.00000000000000	0.00000000000000	
8.02830000000000	32.44496300000000	774.60725200000002	65.45435000000001	0.23295500000000	0.00000000000000	0.10707500000000	0.00000000000000	0.00000000000000	0.00000000000000	0.00000000000000	0.00000000000000	0.00000000000000	0.00000000000000	22.07038700000000	0.00000000000000	0.00000000000000	0.00000000000000	0.00000000000000	
8.02996600000000	31.83979800000000	774.80806399999994	65.33003400000000	0.23218200000000	0.00000000000000	0.10703300000000	0.00000000000000	0.00000000000000	0.00000000000000	0.00000000000000	0.00000000000000	0.00000000000000	0.00000000000000	22.01824300000000	0.00000000000000	0.00000000000000	0.00000000000000	0.00000000000000	
8.03163800000000	31.24141500000000	774.90372000000002	65.19720300000000	0.23139900000000	0.00000000000000	0.10699200000000	0.00000000000000	0.00000000000000	0.00000000000000	0.00000000000000	0.00000000000000	0.00000000000000	0.00000000000000	21.96237100000000	0.00000000000000	0.00000000000000	0.00000000000000	0.00000000000000	
8.03330400000000	30.64918900000000	774.89537399999995	65.05579299999999	0.23060400000000	0.00000000000000	0.10695100000000	0.00000000000000	0.00000000000000	0.00000000000000	0.00000000000000	0.00000000000000	0.00000000000000	0.00000000000000	21.90272400000000	0.00000000000000	0.00000000000000	0.00000000000000	0.00000000000000	
8.03497200000000	30.06249900000000	774.78436699999997	64.90574800000000	0.22979500000000	0.00000000000000	0.10691000000000	0.00000000000000	0.00000000000000	0.00000000000000	0.00000000000000	0.00000000000000	0.00000000000000	0.00000000000000	21.83926600000000	0.00000000000000	0.00000000000000	0.00000000000000	0.00000000000000	
8.03663200000000	29.48073600000000	774.57222800000000	64.74703100000001	0.22897100000000	0.00000000000000	0.10687000000000	0.00000000000000	0.00000000000000	0.00000000000000	0.00000000000000	0.00000000000000	0.00000000000000	0.00000000000000	21.77196900000000	0.00000000000000	0.00000000000000	0.00000000000000	0.00000000000000	
8.03829700000000	28.90330700000000	774.26066900000001	64.57962000000001	0.22813000000000	0.00000000000000	0.10683100000000	0.00000000000000	0.00000000000000	0.00000000000000	0.00000000000000	0.00000000000000	0.00000000000000	0.00000000000000	21.70081900000000	0.00000000000000	0.00000000000000	0.00000000000000	0.00000000000000	
8.03996900000000	28.32963800000000	773.85158799999999	64.40351400000000	0.22726900000000	0.00000000000000	0.10679200000000	0.00000000000000	0.00000000000000	0.00000000000000	0.00000000000000	0.00000000000000	0.00000000000000	0.00000000000000	21.62581400000000	0.00000000000000	0.00000000000000	0.00000000000000	0.00000000000000	
8.04163400000000	27.75918300000000	773.34706200000005	64.21873300000000	0.22638800000000	0.00000000000000	0.10675400000000	0.00000000000000	0.00000000000000	0.00000000000000	0.00000000000000	0.00000000000000	0.00000000000000	0.00000000000000	21.54696700000000	0.00000000000000	0.00000000000000	0.00000000000000	0.00000000000000	
8.04329900000000	27.19142100000000	772.74934499999995	64.02532200000000	0.22548600000000	0.00000000000000	0.10671600000000	0.00000000000000	0.00000000000000	0.00000000000000	0.00000000000000	0.00000000000000	0.00000000000000	0.00000000000000	21.46430500000000	0.00000000000000	0.00000000000000	0.00000000000000	0.00000000000000	
8.04497000000000	26.62586800000000	772.06086400000004	63.82335000000000	0.22456000000000	0.00000000000000	0.10668000000000	0.00000000000000	0.00000000000000	0.00000000000000	0.00000000000000	0.00000000000000	0.00000000000000	0.00000000000000	21.37786900000000	0.00000000000000	0.00000000000000	0.00000000000000	0.00000000000000	
8.04663200000000	26.06207400000000	771.28421300000002	63.61291600000000	0.22361100000000	0.00000000000000	0.10664400000000	0.00000000000000	0.00000000000000	0.00000000000000	0.00000000000000	0.00000000000000	0.00000000000000	0.00000000000000	21.28771700000000	0.00000000000000	0.00000000000000	0.00000000000000	0.00000000000000	
8.04829900000000	25.49962900000000	770.42214799999999	63.39414400000000	0.22263700000000	0.00000000000000	0.10661000000000	0.00000000000000	0.00000000000000	0.00000000000000	0.00000000000000	0.00000000000000	0.00000000000000	0.00000000000000	21.19392300000000	0.00000000000000	0.00000000000000	0.00000000000000	0.00000000000000	
8.04996500000000	24.93816500000000	769.47758299999998	63.16718800000000	0.22163800000000	0.00000000000000	0.10657600000000	0.00000000000000	0.00000000000000	0.00000000000000	0.00000000000000	0.00000000000000	0.00000000000000	0.00000000000000	21.09657700000000	0.00000000000000	0.00000000000000	0.00000000000000	0.00000000000000	
